# xmcd CD database file
#
# Track frame offsets:
#	150
#	24450
#	37143
#	67876
#	90748
#	127735
#	164526
#	173826
#	192287
#	216664
#	221875
#	244921
#	271456
#	292642
#
# Disc length: 4394 seconds
#
# Revision: 0
# Processed by: cddbd v1.5.1PL0 Copyright (c) Steve Scherf et al.
# Submitted via: CDex 1.50beta10
#
DISCID=d211280e
DTITLE=Jaco Pastorius - Berliner Jazz stage  1979-11-02
DYEAR=1900
DGENRE=Jazz
TTITLE0=1. Continuum
TTITLE1=2. Mysterious Mountain
TTITLE2=3. Chromatic Fantasy
TTITLE3=4. Teen Town - 2nd show 
TTITLE4=5. Slang
TTITLE5=6. Continuum
TTITLE6=7. Mysterious Mountain
TTITLE7=8. Chromatic Fantasy
TTITLE8=9. Bass Improv 1
TTITLE9=10. Bass Improv 2
TTITLE10=11. Teen Town
TTITLE11=12. Bass Improv 3
TTITLE12=13. Portait Of Tracy
TTITLE13=14. Sophisticated Lady
EXTD=
EXTT0=
EXTT1=
EXTT2=
EXTT3=
EXTT4=
EXTT5=
EXTT6=
EXTT7=
EXTT8=
EXTT9=
EXTT10=
EXTT11=
EXTT12=
EXTT13=
PLAYORDER=
